<?xml version="1.0" encoding="UTF-8"?>
<svg version="1.1" xmlns="http://www.w3.org/2000/svg" width="24" height="24">
<path d="M0 0 C5.63630194 0.02010571 5.63630194 0.02010571 8.12109375 1.45703125 C9.4375 2.8125 9.4375 2.8125 11.25 5.375 C11.58 5.705 11.91 6.035 12.25 6.375 C13.33660932 16.49598966 13.33660932 16.49598966 11.16796875 20.24609375 C9.8125 21.5625 9.8125 21.5625 7.25 23.375 C6.92 23.705 6.59 24.035 6.25 24.375 C-3.87098966 25.46160932 -3.87098966 25.46160932 -7.62109375 23.29296875 C-8.9375 21.9375 -8.9375 21.9375 -10.75 19.375 C-11.08 19.045 -11.41 18.715 -11.75 18.375 C-12.83660932 8.25401034 -12.83660932 8.25401034 -10.66796875 4.50390625 C-9.3125 3.1875 -9.3125 3.1875 -6.75 1.375 C-4.95690039 -0.41809961 -2.42624022 0.07692957 0 0 Z " fill="#171718" transform="translate(11.75,-0.375)"/>
<path d="M0 0 C1.8125 1.875 1.8125 1.875 3 4 C2.67 4.99 2.34 5.98 2 7 C1.79375 6.360625 1.5875 5.72125 1.375 5.0625 C0.10461791 2.65074923 0.10461791 2.65074923 -3.125 2.25 C-4.07375 2.1675 -5.0225 2.085 -6 2 C-5.67 3.65 -5.34 5.3 -5 7 C-5.66 7 -6.32 7 -7 7 C-6.34 9.31 -5.68 11.62 -5 14 C-7.375 13.6875 -7.375 13.6875 -10 13 C-12 10 -12 10 -11.8125 6.5 C-10.72535211 1.81690141 -10.72535211 1.81690141 -8 0 C-5.04201735 -1.14502554 -2.93816425 -1.23213339 0 0 Z " fill="#A6A6A6" transform="translate(17,6)"/>
<path d="M0 0 C2.82424288 2.19022918 4.41508603 3.83017207 6 7 C6.06950541 8.54023996 6.08452357 10.08334988 6.0625 11.625 C6.05347656 12.44226562 6.04445313 13.25953125 6.03515625 14.1015625 C6.02355469 14.72804688 6.01195313 15.35453125 6 16 C5.01 16 4.02 16 3 16 C3.33 15.34 3.66 14.68 4 14 C4.43023798 10.12785818 4.31669086 8.47503629 2.125 5.1875 C-0.38144907 2.60733184 -1.25461673 2.08282036 -4.8125 1.6875 C-8.91448247 2.08965514 -10.36270753 2.81973555 -13 6 C-13.95899283 10.46974052 -13.53769613 13.92460774 -11.5 18 C-7.99110649 20.80711481 -5.44928232 20.77753588 -1 21 C-1 21.33 -1 21.66 -1 22 C-9.00826446 22.78512397 -9.00826446 22.78512397 -13 19.625 C-16.16947358 15.46506592 -16.56392237 12.15444834 -16 7 C-12.67309791 -0.28749981 -7.41965426 -1.19519152 0 0 Z " fill="#919192" transform="translate(17,1)"/>
<path d="M0 0 C5.50588235 0.48941176 5.50588235 0.48941176 7.875 2.9375 C9 5 9 5 9 7 C7.68 7 6.36 7 5 7 C4.67 7.66 4.34 8.32 4 9 C4.66 9.33 5.32 9.66 6 10 C5.34 10.66 4.68 11.32 4 12 C3.01 12 2.02 12 1 12 C0.34 9.69 -0.32 7.38 -1 5 C-0.34 5 0.32 5 1 5 C0.67 3.35 0.34 1.7 0 0 Z " fill="#414141" transform="translate(11,8)"/>
<path d="M0 0 C0 0.66 0 1.32 0 2 C-0.804375 2.556875 -1.60875 3.11375 -2.4375 3.6875 C-5.27529983 5.85212758 -5.27529983 5.85212758 -6.0625 9.4375 C-5.98776958 13.69713406 -4.95846138 15.04153862 -2 18 C-4.49710982 17.65557106 -5.82154665 17.15296001 -7.75 15.5 C-9.64447398 11.71105203 -9.68556102 8.15145287 -9 4 C-6.47371562 0.16379039 -4.5024696 -0.5002744 0 0 Z " fill="#121212" transform="translate(12,3)"/>
<path d="M0 0 C3 1 3 1 5 4 C5.30078125 6.77734375 5.30078125 6.77734375 5.3125 9.9375 C5.32925781 10.97777344 5.34601562 12.01804687 5.36328125 13.08984375 C4.95832524 16.33384619 4.25112748 17.67274744 2 20 C-2.35559834 21.61779367 -6.51763378 20.68375078 -11 20 C-8.67187857 18.62037248 -7.30365894 17.99221387 -4.5625 18.0625 C-1.0536936 17.97691936 0.43167498 17.42156359 3 15 C4.17917369 9.37963941 2.99309301 4.86377615 0 0 Z " fill="#333333" transform="translate(19,2)"/>
<path d="M0 0 C1.8125 1.875 1.8125 1.875 3 4 C2.67 4.99 2.34 5.98 2 7 C1.34 5.68 0.68 4.36 0 3 C-0.928125 3 -1.85625 3 -2.8125 3 C-4.875 3 -6.9375 3 -9 3 C-8.67 2.01 -8.34 1.02 -8 0 C-5.08765478 -1.20510837 -2.90002847 -1.21614097 0 0 Z " fill="#DCDCDC" transform="translate(17,6)"/>
<path d="M0 0 C2.96844435 -0.35338623 5.15598218 -0.5417682 7.734375 1.11328125 C9.20348819 2.35503168 10.60704814 3.67337918 12 5 C11.67 5.99 11.34 6.98 11 8 C10.46375 7.34 9.9275 6.68 9.375 6 C7.10041408 3.68975201 7.10041408 3.68975201 3.75 3.75 C2.8425 3.8325 1.935 3.915 1 4 C1.66 3.67 2.32 3.34 3 3 C3 2.34 3 1.68 3 1 C2.01 0.67 1.02 0.34 0 0 Z " fill="#3C3C3C" transform="translate(9,2)"/>
<path d="M0 0 C0.33 0 0.66 0 1 0 C1.10957031 0.61488281 1.21914063 1.22976563 1.33203125 1.86328125 C1.49058594 2.67152344 1.64914063 3.47976562 1.8125 4.3125 C1.96332031 5.11300781 2.11414063 5.91351563 2.26953125 6.73828125 C3.10268352 9.31793453 3.82952115 10.39223789 6 12 C8.04100238 12.57017808 8.04100238 12.57017808 10.1875 12.6875 C12.0746875 12.8421875 12.0746875 12.8421875 14 13 C14 13.33 14 13.66 14 14 C6.01551481 14.78279267 6.01551481 14.78279267 2 11.6875 C-0.46069925 8.38093539 -1.12603347 6.91824383 -0.5625 2.8125 C-0.376875 1.884375 -0.19125 0.95625 0 0 Z " fill="#7B7B7B" transform="translate(2,9)"/>
<path d="M0 0 C3.6324675 1.911825 5.51539826 3.15103252 7 7 C7.1953125 9.359375 7.1953125 9.359375 7.125 11.75 C7.10695313 12.54921875 7.08890625 13.3484375 7.0703125 14.171875 C7.03550781 15.07679687 7.03550781 15.07679687 7 16 C6.01 16 5.02 16 4 16 C4.33 15.34 4.66 14.68 5 14 C5.42799814 10.14801671 5.33963486 8.49813113 3.125 5.25 C1.76944977 3.81471152 0.3959888 2.3959888 -1 1 C-0.67 0.67 -0.34 0.34 0 0 Z " fill="#878787" transform="translate(16,1)"/>
<path d="M0 0 C1.32 0 2.64 0 4 0 C4.12375 0.639375 4.2475 1.27875 4.375 1.9375 C4.684375 2.9584375 4.684375 2.9584375 5 4 C5.66 4.33 6.32 4.66 7 5 C6.34 5.66 5.68 6.32 5 7 C4.01 7 3.02 7 2 7 C1.34 4.69 0.68 2.38 0 0 Z " fill="#343434" transform="translate(10,13)"/>
<path d="M0 0 C0.99 0 1.98 0 3 0 C3 0.66 3 1.32 3 2 C2.34 2 1.68 2 1 2 C1.66 4.31 2.32 6.62 3 9 C2.01 9 1.02 9 0 9 C0 8.01 0 7.02 0 6 C-0.66 6 -1.32 6 -2 6 C-1.125 1.125 -1.125 1.125 0 0 Z " fill="#D3D3D3" transform="translate(9,11)"/>
<path d="M0 0 C0.66 0 1.32 0 2 0 C1.9175 0.886875 1.835 1.77375 1.75 2.6875 C2.05208163 6.69008159 3.29727467 8.12835434 6 11 C3.33246269 10.63206382 2.18001672 10.18001672 0.25 8.25 C-1.22209963 5.60022067 -1.32298378 3.98759994 -1 1 C-0.67 0.67 -0.34 0.34 0 0 Z " fill="#1B1B1B" transform="translate(4,10)"/>
<path d="M0 0 C-1.875 3.875 -1.875 3.875 -3 5 C-4.66617115 5.04063832 -6.33388095 5.042721 -8 5 C-3.375 0 -3.375 0 0 0 Z " fill="#0E0E0E" transform="translate(20,16)"/>
<path d="M0 0 C2.475 0.495 2.475 0.495 5 1 C5.33 2.65 5.66 4.3 6 6 C5.01 5.34 4.02 4.68 3 4 C3 3.34 3 2.68 3 2 C2.01 2 1.02 2 0 2 C0 1.34 0 0.68 0 0 Z " fill="#CCCCCC" transform="translate(14,7)"/>
</svg>
