<?xml version="1.0" standalone="no"?>
<!DOCTYPE svg PUBLIC "-//W3C//DTD SVG 20010904//EN"
 "http://www.w3.org/TR/2001/REC-SVG-20010904/DTD/svg10.dtd">
<svg version="1.0" xmlns="http://www.w3.org/2000/svg"
 width="24.000000pt" height="24.000000pt" viewBox="0 0 24.000000 24.000000"
 preserveAspectRatio="xMidYMid meet">

<g transform="translate(0.000000,24.000000) scale(0.100000,-0.100000)"
fill="#000000" stroke="none">
<path d="M110 220 c0 -5 -8 -10 -18 -10 -41 0 -57 -57 -26 -91 14 -16 14 -18
-5 -24 -12 -3 -21 -11 -21 -16 0 -6 9 -7 20 -4 17 5 20 2 20 -24 0 -17 5 -31
10 -31 6 0 10 7 10 15 0 8 9 15 20 15 11 0 20 -7 20 -15 0 -8 5 -15 10 -15 6
0 10 14 10 31 0 26 3 29 20 24 11 -3 20 -2 20 4 0 5 -9 13 -21 16 -19 6 -19 8
-5 24 31 34 15 91 -26 91 -10 0 -18 5 -18 10 0 6 -4 10 -10 10 -5 0 -10 -4
-10 -10z m60 -60 c0 -29 -1 -30 -50 -30 -49 0 -50 1 -50 30 0 29 1 30 50 30
49 0 50 -1 50 -30z m-30 -70 c0 -13 -7 -20 -20 -20 -13 0 -20 7 -20 20 0 13 7
20 20 20 13 0 20 -7 20 -20z"/>
<path d="M90 160 c0 -5 5 -10 10 -10 6 0 10 5 10 10 0 6 -4 10 -10 10 -5 0
-10 -4 -10 -10z"/>
<path d="M130 160 c0 -5 5 -10 10 -10 6 0 10 5 10 10 0 6 -4 10 -10 10 -5 0
-10 -4 -10 -10z"/>
</g>
</svg>
